<?xml version="1.0"?>
<svg width="640" height="100" xmlns="http://www.w3.org/2000/svg" xmlns:svg="http://www.w3.org/2000/svg">
 <!-- Created with SVG-edit - https://github.com/SVG-Edit/svgedit-->
 <g class="layer">
  <title>Layer 1</title>
  <text fill="#000000" font-family="Cursive" font-size="69" font-weight="bold" id="svg_1" stroke="#000000" stroke-width="0" text-anchor="middle" transform="matrix(1.56531 0 0 1.17328 -3.28693 -7.73751)" x="164.026602" xml:space="preserve" y="68.625696">La Odyah</text>
  <path d="m531.792042,80.645171c-5.496376,-0.756003 -9.287222,-6.591254 -7.495863,-11.72575c1.107279,-4.977663 6.774532,-6.33933 10.5323,-8.966316c11.939115,-6.854906 23.946238,-13.597984 35.922376,-20.391967c0.629096,-3.314082 -1.909593,-5.378611 -4.621543,-6.936487c-5.426399,-4.170591 -5.130687,-12.48267 -0.535367,-17.125634c5.385681,-6.121856 16.717971,-4.197411 20.078569,3.04361c3.259973,3.218151 -0.061967,11.100637 -4.634537,7.306424c-0.47696,-4.310386 -4.283369,-9.364681 -9.306282,-6.627056c-5.240652,2.913235 -2.144047,9.703781 2.696394,11.071548c3.267314,2.117439 2.831775,6.044517 3.005133,9.35516c14.352332,8.291956 28.88573,16.300004 43.041368,24.903434c5.635625,4.234668 3.317928,14.427225 -3.779191,15.80849c-5.380524,0.749517 -10.900765,0.221591 -16.335222,0.426556c-22.85493,0.017073 -45.715849,0.167633 -68.568137,-0.142012l0.000003,0zm83.156367,-7.005109c4.11484,-3.967959 -3.580826,-6.10206 -6.115767,-8.045737c-11.674254,-6.63338 -23.311157,-13.33677 -35.123046,-19.737435c-13.840526,7.606267 -27.649691,15.288473 -41.232651,23.318637c-2.876096,1.113992 -0.874338,5.567524 1.799715,4.881677c26.30136,-0.0547 52.605259,0.134213 78.904603,-0.13776c0.582307,-0.072074 1.238373,0.025679 1.767146,-0.279386l0,0.000003z" fill="#000000" id="svg_2" stroke="#000000" stroke-dasharray="null" stroke-linecap="null" stroke-linejoin="null" stroke-width="0"/>
 </g>
</svg>